<?xml version="1.0" encoding="UTF-8" standalone="no"?><!DOCTYPE svg PUBLIC "-//W3C//DTD SVG 1.1//EN"
        "http://www.w3.org/Graphics/SVG/1.1/DTD/svg11.dtd">
<svg width="100%" height="100%" viewBox="0 0 135 135" version="1.1" xmlns="http://www.w3.org/2000/svg"
     xml:space="preserve"
     style="fill-rule:evenodd;clip-rule:evenodd;stroke-linejoin:round;stroke-miterlimit:2;"><g><rect x="0" y="-0" width="135" height="135" style="fill:#2563eb;"/><g><path d="M102.102,55.789c7.819,0 13.788,2.304 17.907,6.912c4.119,4.607 6.178,10.856 6.178,18.744c0,5.935 -1.344,11.136 -4.032,15.604c-2.687,4.468 -6.684,7.923 -11.99,10.367c-5.306,2.443 -11.729,3.665 -19.268,3.665c-5.097,0 -10.193,-0.576 -15.289,-1.728c-5.097,-1.152 -9.635,-2.565 -13.614,-4.241l0,-22.305c9.076,4.258 17.314,6.388 24.714,6.388c3.84,-0 6.702,-0.786 8.587,-2.357c1.885,-1.57 2.827,-4.031 2.827,-7.382c0,-2.444 -0.558,-4.364 -1.675,-5.76c-1.117,-1.396 -2.898,-2.094 -5.341,-2.094c-1.885,-0 -3.403,0.471 -4.555,1.414c-1.152,0.942 -2.077,2.286 -2.775,4.031l-21.991,0l4.503,-48.904l55.71,0l0,20.316l-34.767,-0l-0.942,10.786c4.398,-2.304 9.669,-3.456 15.813,-3.456Z" style="fill:#fbbf24;fill-rule:nonzero;"/>
    <path d="M43.502,111.817c-6.702,-0 -13.037,-0.576 -19.006,-1.728c-5.969,-1.152 -10.56,-2.461 -13.771,-3.927l0,-20.734l23.038,-0c0,2.164 0.489,3.735 1.466,4.712c0.978,0.977 2.758,1.466 5.341,1.466c2.164,0 3.718,-0.332 4.66,-0.995c0.943,-0.663 1.414,-1.658 1.414,-2.984c-0,-1.117 -0.454,-2.077 -1.362,-2.88c-0.907,-0.803 -2.478,-1.623 -4.712,-2.461l-9.006,-3.142c-7.749,-2.932 -13.317,-6.388 -16.703,-10.367c-3.385,-3.979 -5.078,-9.355 -5.078,-16.127c-0,-8.238 2.705,-14.503 8.115,-18.797c5.411,-4.293 14.434,-6.44 27.07,-6.44c6.074,-0 11.781,0.611 17.122,1.833c5.341,1.221 9.652,2.844 12.933,4.869l-0,18.745l-20.944,-0c-0,-3.491 -2.164,-5.236 -6.493,-5.236c-2.094,-0 -3.578,0.262 -4.45,0.785c-0.873,0.524 -1.309,1.449 -1.309,2.775c-0,1.187 0.506,2.13 1.518,2.828c1.012,0.698 2.671,1.431 4.974,2.199l9.111,3.141c7.4,2.514 12.793,5.777 16.179,9.792c3.386,4.014 5.079,9.267 5.079,15.76c-0,8.866 -2.985,15.568 -8.954,20.106c-5.969,4.538 -14.713,6.807 -26.232,6.807Z"
          style="fill:#fff;fill-rule:nonzero;"/></g></g></svg>
