<?xml version="1.0" encoding="UTF-8" standalone="no"?>
<!DOCTYPE svg PUBLIC "-//W3C//DTD SVG 1.1//EN" "http://www.w3.org/Graphics/SVG/1.1/DTD/svg11.dtd">
<svg width="100%" height="100%" viewBox="0 0 333 67" version="1.1" xmlns="http://www.w3.org/2000/svg" xmlns:xlink="http://www.w3.org/1999/xlink" xml:space="preserve" xmlns:serif="http://www.serif.com/" style="fill-rule:evenodd;clip-rule:evenodd;stroke-linejoin:round;stroke-miterlimit:2;">
    <g transform="matrix(3.45426,0,0,3.45426,-570.756,-2342.93)">
        <g>
            <path d="M172.96,697.617C171.424,697.617 169.972,697.485 168.604,697.221C167.236,696.957 166.184,696.657 165.448,696.321L165.448,691.569L170.728,691.569C170.728,692.065 170.84,692.425 171.064,692.649C171.288,692.873 171.696,692.985 172.288,692.985C172.784,692.985 173.14,692.909 173.356,692.757C173.572,692.605 173.68,692.377 173.68,692.073C173.68,691.817 173.576,691.597 173.368,691.413C173.16,691.229 172.8,691.041 172.288,690.849L170.224,690.129C168.448,689.457 167.172,688.665 166.396,687.753C165.62,686.841 165.232,685.609 165.232,684.057C165.232,682.169 165.852,680.733 167.092,679.749C168.332,678.765 170.4,678.273 173.296,678.273C174.688,678.273 175.996,678.413 177.22,678.693C178.444,678.973 179.432,679.345 180.184,679.809L180.184,684.105L175.384,684.105C175.384,683.305 174.888,682.905 173.896,682.905C173.416,682.905 173.076,682.965 172.876,683.085C172.676,683.205 172.576,683.417 172.576,683.721C172.576,683.993 172.692,684.209 172.924,684.369C173.156,684.529 173.536,684.697 174.064,684.873L176.152,685.593C177.848,686.169 179.084,686.917 179.86,687.837C180.636,688.757 181.024,689.961 181.024,691.449C181.024,693.481 180.34,695.017 178.972,696.057C177.604,697.097 175.6,697.617 172.96,697.617Z" style="fill:#2563eb;fill-rule:nonzero;"/>
            <path d="M187.576,697.617C185.88,697.617 184.604,697.205 183.748,696.381C182.892,695.557 182.464,694.169 182.464,692.217L182.464,687.873L181.408,687.873L181.408,683.937C182.016,683.937 182.472,683.781 182.776,683.469C183.08,683.157 183.232,682.729 183.232,682.185L183.232,681.105L188.32,681.105L188.32,683.937L191.56,683.937L191.56,687.873L188.32,687.873L188.32,691.809C188.32,692.337 188.436,692.725 188.668,692.973C188.9,693.221 189.248,693.345 189.712,693.345C190.32,693.345 190.984,693.273 191.704,693.129L191.704,696.897C191.256,697.073 190.652,697.237 189.892,697.389C189.132,697.541 188.36,697.617 187.576,697.617Z" style="fill:#2563eb;fill-rule:nonzero;"/>
            <path d="M199.624,697.617C197.352,697.617 195.576,697.021 194.296,695.829C193.016,694.637 192.376,692.897 192.376,690.609C192.376,688.321 193.016,686.581 194.296,685.389C195.576,684.197 197.352,683.601 199.624,683.601C201.88,683.601 203.508,684.189 204.508,685.365C205.508,686.541 206.008,688.001 206.008,689.745L206.008,691.473L198.232,691.473L198.232,691.617C198.232,692.209 198.408,692.645 198.76,692.925C199.112,693.205 199.696,693.345 200.512,693.345C201.488,693.345 202.416,693.273 203.296,693.129C204.176,692.985 204.944,692.801 205.6,692.577L205.6,696.417C205.04,696.721 204.22,696.997 203.14,697.245C202.06,697.493 200.888,697.617 199.624,697.617ZM201.016,688.833L201.016,688.545C201.016,688.001 200.9,687.609 200.668,687.369C200.436,687.129 200.088,687.009 199.624,687.009C199.16,687.009 198.812,687.133 198.58,687.381C198.348,687.629 198.232,688.017 198.232,688.545L198.232,688.833L201.016,688.833Z" style="fill:#2563eb;fill-rule:nonzero;"/>
            <path d="M220.72,693.345L220.72,697.281L214.384,697.281L214.384,695.649C214.032,696.161 213.54,696.617 212.908,697.017C212.276,697.417 211.504,697.617 210.592,697.617C209.392,697.617 208.448,697.297 207.76,696.657C207.072,696.017 206.728,695.113 206.728,693.945C206.728,690.921 209.296,689.369 214.432,689.289C214.384,688.745 214.176,688.373 213.808,688.173C213.44,687.973 212.816,687.873 211.936,687.873C211.216,687.873 210.444,687.949 209.62,688.101C208.796,688.253 208.04,688.457 207.352,688.713L207.352,684.297C208.2,684.089 209.12,683.921 210.112,683.793C211.104,683.665 212.072,683.601 213.016,683.601C215.4,683.601 217.104,684.033 218.128,684.897C219.152,685.761 219.664,687.097 219.664,688.905L219.664,693.345L220.72,693.345ZM214.384,691.665C213.664,691.665 213.108,691.761 212.716,691.953C212.324,692.145 212.128,692.465 212.128,692.913C212.128,693.185 212.212,693.405 212.38,693.573C212.548,693.741 212.784,693.825 213.088,693.825C213.504,693.825 213.824,693.649 214.048,693.297C214.272,692.945 214.384,692.449 214.384,691.809L214.384,691.665Z" style="fill:#2563eb;fill-rule:nonzero;"/>
            <path d="M245.728,693.345L245.728,697.281L238.144,697.281L238.144,693.345L239.152,693.345L239.152,689.409C239.152,688.881 239.04,688.493 238.816,688.245C238.592,687.997 238.256,687.873 237.808,687.873C236.848,687.873 236.368,688.385 236.368,689.409L236.368,693.345L237.376,693.345L237.376,697.281L229.84,697.281L229.84,693.345L230.848,693.345L230.848,689.409C230.848,688.881 230.736,688.493 230.512,688.245C230.288,687.997 229.952,687.873 229.504,687.873C228.544,687.873 228.064,688.385 228.064,689.409L228.064,693.345L229.072,693.345L229.072,697.281L221.488,697.281L221.488,693.345L222.544,693.345L222.544,687.873L221.488,687.873L221.488,683.937L228.064,683.937L228.064,685.809C229.216,684.337 230.656,683.601 232.384,683.601C233.36,683.601 234.156,683.829 234.772,684.285C235.388,684.741 235.824,685.385 236.08,686.217C236.656,685.385 237.316,684.745 238.06,684.297C238.804,683.849 239.68,683.625 240.688,683.625C242.016,683.625 243.012,684.041 243.676,684.873C244.34,685.705 244.672,686.849 244.672,688.305L244.672,693.345L245.728,693.345Z" style="fill:#2563eb;fill-rule:nonzero;"/>
            <path d="M255.832,684.945C257.624,684.945 258.992,685.473 259.936,686.529C260.88,687.585 261.352,689.017 261.352,690.825C261.352,692.185 261.044,693.377 260.428,694.401C259.812,695.425 258.896,696.217 257.68,696.777C256.464,697.337 254.992,697.617 253.264,697.617C252.096,697.617 250.928,697.485 249.76,697.221C248.592,696.957 247.552,696.633 246.64,696.249L246.64,691.137C248.72,692.113 250.608,692.601 252.304,692.601C253.184,692.601 253.84,692.421 254.272,692.061C254.704,691.701 254.92,691.137 254.92,690.369C254.92,689.809 254.792,689.369 254.536,689.049C254.28,688.729 253.872,688.569 253.312,688.569C252.88,688.569 252.532,688.677 252.268,688.893C252.004,689.109 251.792,689.417 251.632,689.817L246.592,689.817L247.624,678.609L260.392,678.609L260.392,683.265L252.424,683.265L252.208,685.737C253.216,685.209 254.424,684.945 255.832,684.945Z" style="fill:#fbbf24;fill-rule:nonzero;"/>
        </g>
    </g>
</svg>
